<svg width="212" height="44" viewBox="0 0 212 44" fill="none" xmlns="http://www.w3.org/2000/svg">
<path d="M171.338 8.66004C170.004 9.35984 168.981 10.2783 168.27 11.4155V0H160.668V18H168.506C168.759 17.1181 169.185 16.3666 169.782 15.7455C170.849 14.6667 172.138 14.1272 173.649 14.1272C175.191 14.1272 176.48 14.6667 177.517 15.7455C178.14 16.358 178.581 17.1095 178.84 18H186.728C186.526 16.3516 186.079 14.8565 185.386 13.5149C184.438 11.6196 183.134 10.1617 181.474 9.14115C179.814 8.12061 177.962 7.61034 175.917 7.61034C174.198 7.61034 172.671 7.96024 171.338 8.66004Z" fill="white"/>
<path d="M186.408 24H178.003C177.855 24.2039 177.694 24.3974 177.517 24.5805C176.45 25.6594 175.161 26.1988 173.649 26.1988C172.138 26.1988 170.849 25.6594 169.782 24.5805C169.606 24.3982 169.446 24.2047 169.3 24H160.668V32.3658H168.27V28.9543C169.011 30.0914 170.034 31.0099 171.338 31.7097C172.642 32.3804 174.168 32.7157 175.917 32.7157C177.962 32.7157 179.814 32.2054 181.474 31.1849C183.134 30.1352 184.438 28.6627 185.386 26.7674C185.825 25.9037 186.166 24.9812 186.408 24Z" fill="white"/>
<path d="M155.168 18V7.96024H147.566V11.4155C146.854 10.2783 145.832 9.35984 144.498 8.66004C143.194 7.96024 141.668 7.61034 139.919 7.61034C137.874 7.61034 136.022 8.12061 134.362 9.14115C132.702 10.1617 131.383 11.6196 130.405 13.5149C129.734 14.8565 129.3 16.3516 129.104 18H136.988C137.24 17.1095 137.669 16.358 138.274 15.7455C139.341 14.6667 140.63 14.1272 142.142 14.1272C143.653 14.1272 144.928 14.6667 145.965 15.7455C146.579 16.3666 147.017 17.1181 147.278 18H155.168Z" fill="white"/>
<path d="M146.46 24H155.168V32.3658H147.566V28.9105C146.825 30.0477 145.787 30.9662 144.454 31.666C143.15 32.3658 141.623 32.7157 139.875 32.7157C137.859 32.7157 136.022 32.2054 134.362 31.1849C132.702 30.1352 131.383 28.6627 130.405 26.7674C129.979 25.9037 129.649 24.9812 129.415 24H137.802C137.945 24.2039 138.103 24.3974 138.274 24.5805C139.341 25.6594 140.63 26.1988 142.142 26.1988C143.653 26.1988 144.928 25.6594 145.965 24.5805C146.146 24.3982 146.311 24.2047 146.46 24Z" fill="white"/>
<path d="M190.842 24H198.444V32.3658H190.842V24Z" fill="white"/>
<path d="M198.444 18H190.842V0H198.444V18Z" fill="white"/>
<path d="M0 16.9702C0 13.9377 0.666863 11.2406 2.00059 8.87873C3.33432 6.48774 5.18671 4.63618 7.55778 3.32405C9.95849 1.98277 12.6704 1.31213 15.6935 1.31213C19.3983 1.31213 22.5696 2.27435 25.2074 4.19881C27.8452 6.12326 29.6087 8.74751 30.4979 12.0716H22.1399C21.5175 10.7886 20.6283 9.8118 19.4724 9.14115C18.3462 8.47051 17.0569 8.13519 15.6046 8.13519C13.2632 8.13519 11.3663 8.93704 9.91403 10.5408C8.46175 12.1445 7.73562 14.2876 7.73562 16.9702C7.73562 19.6527 8.46175 21.7959 9.91403 23.3996C11.3663 25.0033 13.2632 25.8052 15.6046 25.8052C17.0569 25.8052 18.3462 25.4698 19.4724 24.7992C20.6283 24.1286 21.5175 23.1518 22.1399 21.8688H30.4979C29.6087 25.1928 27.8452 27.8171 25.2074 29.7416C22.5696 31.6368 19.3983 32.5845 15.6935 32.5845C12.6704 32.5845 9.95849 31.9284 7.55778 30.6163C5.18671 29.275 3.33432 27.4235 2.00059 25.0616C0.666863 22.6998 0 20.0026 0 16.9702Z" fill="white"/>
<path d="M42.7557 12.0278C43.6448 10.6865 44.7563 9.63684 46.09 8.87873C47.4237 8.09145 48.9056 7.69781 50.5357 7.69781V15.6143H48.4462C46.5494 15.6143 45.1267 16.0225 44.1783 16.839C43.2299 17.6262 42.7557 19.0258 42.7557 21.0378V32.3658H35.1534V7.96024H42.7557V12.0278Z" fill="white"/>
<path d="M63.9501 43.9563L79.5102 7.96024H71.2856L65.595 23.2247L59.86 7.96024H51.3686L61.4605 31.5348L55.7699 43.9563H63.9501Z" fill="white"/>
<path fill-rule="evenodd" clip-rule="evenodd" d="M89.8616 11.4155C90.6025 10.2783 91.6251 9.35984 92.9291 8.66004C94.2332 7.96024 95.7596 7.61034 97.5083 7.61034C99.5533 7.61034 101.406 8.12061 103.065 9.14115C104.725 10.1617 106.029 11.6196 106.978 13.5149C107.956 15.4102 108.445 17.6117 108.445 20.1193C108.445 22.6269 107.956 24.8429 106.978 26.7674C106.029 28.6627 104.725 30.1352 103.065 31.1849C101.406 32.2054 99.5533 32.7157 97.5083 32.7157C95.7892 32.7157 94.2629 32.3658 92.9291 31.666C91.6251 30.9662 90.6025 30.0623 89.8616 28.9543V44H82.2593V7.96024H89.8616V11.4155ZM100.709 20.1193C100.709 18.2531 100.176 16.7952 99.1087 15.7455C98.0714 14.6667 96.7821 14.1272 95.2409 14.1272C93.7294 14.1272 92.4401 14.6667 91.3731 15.7455C90.3358 16.8244 89.8171 18.2969 89.8171 20.163C89.8171 22.0292 90.3358 23.5017 91.3731 24.5805C92.4401 25.6594 93.7294 26.1988 95.2409 26.1988C96.7525 26.1988 98.0418 25.6594 99.1087 24.5805C100.176 23.4725 100.709 21.9854 100.709 20.1193Z" fill="white"/>
<path d="M126.259 32.3658V26.0239H123.548C122.718 26.0239 122.125 25.8635 121.769 25.5427C121.414 25.222 121.236 24.6971 121.236 23.9682V14.171H126.215V7.96024H121.236V2.01193H113.634V7.96024H110.61V14.171H113.634V23.8807C113.634 26.884 114.404 29.0563 115.945 30.3976C117.486 31.7097 119.635 32.3658 122.392 32.3658H126.259Z" fill="white"/>
<path d="M204.22 31.5785C205.079 32.3366 206.176 32.7157 207.51 32.7157C208.814 32.7157 209.881 32.3366 210.711 31.5785C211.57 30.7913 212 29.829 212 28.6918C212 27.5255 211.57 26.5487 210.711 25.7614C209.881 24.9742 208.814 24.5805 207.51 24.5805C206.176 24.5805 205.079 24.9742 204.22 25.7614C203.39 26.5487 202.975 27.5255 202.975 28.6918C202.975 29.829 203.39 30.7913 204.22 31.5785Z" fill="white"/>
</svg>
